# xmcd CD database file
#
# Track frame offsets:
#	150
#	27014
#	56231
#	80045
#	113709
#	142728
#	174089
#	198632
#	229919
#	241882
#
# Disc length: 3499 seconds
#
# Revision: 1
# Processed by: cddbd v1.5.2PL0 Copyright (c) Steve Scherf et al.
# Submitted via: CDex 1.70beta2
#
DISCID=7d0da90a
DTITLE=Xavier Dotras Trio - Vincent
DYEAR=2009
DGENRE=Jazz
TTITLE0=Les Iris
TTITLE1=Adoració 2.1.
TTITLE2=Nuit étoilée
TTITLE3=Théo
TTITLE4=Bourinage
TTITLE5=La maison jaune
TTITLE6=Champ de blé
TTITLE7=Tournesols
TTITLE8=Re: de Théo à Vincent
TTITLE9=Auvers (La pluie, l'église, champ aux corbeaux...le voyage)
EXTD=YEAR: 2009
EXTT0=
EXTT1=
EXTT2=
EXTT3=
EXTT4=
EXTT5=
EXTT6=
EXTT7=
EXTT8=
EXTT9=
PLAYORDER=
